<svg height="512pt" viewBox="0 0 512 512" width="512pt" xmlns="http://www.w3.org/2000/svg"><path d="m451.515625 169.777344c1.171875-4.496094.191406-9.277344-2.648437-12.953125-2.839844-3.671875-7.222657-5.824219-11.867188-5.824219h-45.214844c-28.195312 0-39.695312-23.984375-40.292968-24.582031-6.050782-9.738281-14.332032-17.824219-23.984376-23.804688-5.695312-38.652343-36.15625-102.613281-72.507812-102.613281-8.285156 0-15 6.714844-15 15v76h-30v-76c0-8.285156-6.714844-15-15-15-38.5 0-69.804688 60.589844-74.398438 97.050781-70.703124 19.769531-120.601562 84.390625-120.601562 158.949219v241c0 8.285156 6.714844 15 15 15h180c8.285156 0 14.988281-6.714844 14.988281-15v-45h91.011719v45c0 8.285156 6.714844 15 15 15h60c8.285156 0 15-6.714844 15-15v-197.359375c23.058594-4.542969 31.941406-19.628906 35.214844-32.652344zm-156.832031-78.363282c-2.609375-.269531-5.242188-.414062-7.894532-.414062h-16.789062v-48.179688c10.246094 11.851563 19.484375 28.785157 24.683594 48.59375zm-114.671875 330.585938h-30.011719v-119.144531c8.546875 8.558593 18.667969 15.660156 30.011719 20.839843zm-60.011719 0h-30v-166c0-23.996094 11.484375-46.09375 30-60.023438zm0 30v30h-30v-30zm0-323.320312v32.425781c-36.28125 17.226562-60 54.097656-60 94.894531v166h-30v-166c0-57.652344 36.898438-108.542969 90-127.320312zm-90 323.320312h30v30h-30zm120 30v-30h30.011719v30zm59.992188-90h91.007812v30h-91.007812zm151.007812 30h-30v-76c0-19.554688 12.539062-36.238281 30-42.429688zm-30 60v-30h30v30zm66.164062-222.503906c-.011718.050781-.023437.09375-.035156.140625-1.199218 4.796875-2.839844 11.363281-21.128906 11.363281-41.355469 0-75 33.644531-75 75v16h-91.007812v-48.5c0-6.457031-4.121094-12.1875-10.25-14.230469-29.75-9.917969-49.742188-37.652343-49.742188-69.015625 0-3.792968 0-14.292968 0-19.253906h38.242188c10.582031 18.292969 30.230468 30 51.757812 30 25.222656 0 47.878906-16.066406 56.378906-39.976562 1.15625-3.25 1.15625-6.796876 0-10.046876-8.5-23.910156-31.15625-39.976562-56.378906-39.976562-21.527344 0-41.175781 11.707031-51.757812 30h-38.242188v-71.070312c1.921875-31.019532 17.0625-57.769532 30-70.933594v67.003906c0 8.285156 6.714844 15 15 15h91.789062c15.804688 0 31.199219 8.34375 39.222657 21.25 1.027343 1.003906 18.980469 38.75 65.773437 38.75h25.8125zm-182.953124-63.496094c5.289062-9.148438 15.082031-15 25.789062-15s20.5 5.851562 25.789062 15c-5.289062 9.148438-15.082031 15-25.789062 15s-20.5-5.851562-25.789062-15zm0 0"/><path d="m497 301h-60c-8.285156 0-15 6.714844-15 15v30c0 19.949219 12.859375 37.046875 30 43.335938v107.664062c0 8.285156 6.714844 15 15 15s15-6.714844 15-15v-107.664062c17.117188-6.28125 30-23.347657 30-43.335938v-30c0-8.285156-6.714844-15-15-15zm-15 45c0 8.523438-7.007812 16-15 16s-15-7.476562-15-16v-15h30zm0 0"/></svg>